<svg xmlns="http://www.w3.org/2000/svg" width="228" height="50" viewBox="0 0 228 50" fill="none">
<g clip-path="url(#clip0_6456_48544)">
<path d="M24.7546 19.1824V31.1583H12.876L24.7546 19.1824Z" fill="#E75294"/>
<path d="M12.876 31.2557V19.1824H24.7546L12.876 31.2557Z" fill="#F6C5DA"/>
<path d="M12.876 31.2556H24.7546V43.2316L12.876 31.2556Z" fill="#FABB00"/>
<path d="M24.7546 43.2316H12.876V31.2556L24.7546 43.2316Z" fill="#FFED00"/>
<path d="M12.876 7.20642H24.7546V19.1824L12.876 7.20642Z" fill="#E9E2ED"/>
<path d="M24.7546 19.1824H12.876V7.20642L24.7546 19.1824Z" fill="#A990B3"/>
<path d="M0.899902 19.1824H12.7785V31.1583L0.899902 19.1824Z" fill="#00B1CD"/>
<path d="M0.899902 31.2557H12.7785L0.899902 19.1824V31.2557Z" fill="#B1DEE8"/>
<path d="M0.899902 31.2556V43.2316L12.7785 31.2556H0.899902Z" fill="#EC7405"/>
<path d="M0.899902 43.2316H12.7785V31.2556L0.899902 43.2316Z" fill="#FABB00"/>
<path d="M12.8759 7.20642V19.1824H0.899902L12.8759 7.20642Z" fill="#FFED00"/>
<path d="M0.899902 19.1824V7.20642H12.7785L0.899902 19.1824Z" fill="#FABB00"/>
<path d="M36.6335 31.2557H24.7549V19.1824L36.6335 31.2557Z" fill="#D2D600"/>
<path d="M24.7549 19.1824H36.6335V31.1583L24.7549 19.1824Z" fill="#7BAF1F"/>
<path d="M24.7549 43.1342V31.2556H36.6335L24.7549 43.1342Z" fill="#00B1CD"/>
<path d="M36.6335 31.2556V43.2316H24.7549L36.6335 31.2556Z" fill="#B1DEE8"/>
<path d="M36.6335 7.20642V19.1824H24.7549L36.6335 7.20642Z" fill="#FABB00"/>
<path d="M24.7549 19.1824V7.20642H36.6335L24.7549 19.1824Z" fill="#EC7405"/>
<path fill-rule="evenodd" clip-rule="evenodd" d="M75.6623 24.239H74.4071V-1H75.6623V24.239ZM67.2844 3.81704H68.5392V0.696209H67.2844V3.81704ZM67.2844 24.2391H68.5392V6.76888H67.2844V24.2391ZM55.717 24.2391L49 6.76886H50.3567L56.3954 22.509L62.4336 6.76886H63.7903L57.0737 24.2391H55.717ZM66.8772 30.7584C65.9507 30.7584 65.1116 31.0357 64.4012 31.5038V28.1237H61.1075V42.8819H64.4012V35.992C64.4094 34.7776 65.232 33.9754 66.4751 33.9662C68.279 33.9715 68.4397 35.3404 68.4592 35.992V42.88H71.7296V35.992C71.7296 34.442 71.2488 33.1295 70.3961 32.2079C69.5454 31.2853 68.3232 30.7584 66.8772 30.7584ZM96.2582 36.4014C95.3497 35.8527 94.1051 35.5807 92.6697 35.3428C91.9559 35.2316 91.3927 35.1243 91.0265 34.9806C90.6541 34.8271 90.5269 34.6839 90.5264 34.4751C90.5264 34.3367 90.6177 34.1575 90.894 33.9982C91.1688 33.8414 91.6238 33.7195 92.2861 33.7205C93.3447 33.7214 93.9109 34.1279 94.0561 34.5712L94.0925 34.6824H97.46L97.4284 34.4935C97.0346 32.2356 94.9782 30.755 92.2866 30.7604C90.5939 30.7604 89.3226 31.2387 88.4763 31.9646C87.6294 32.6876 87.2099 33.6573 87.2099 34.6091C87.2055 35.9551 87.9504 36.8068 88.9264 37.3177C89.9044 37.8333 91.1198 38.0494 92.1511 38.2048C93.1505 38.3597 93.7448 38.5102 94.0609 38.6797C94.3702 38.8565 94.4173 38.9866 94.4285 39.2775C94.4266 39.5338 94.2678 39.7329 93.9264 39.8961C93.587 40.0554 93.0868 40.1452 92.51 40.1442C91.6748 40.1462 90.555 39.7902 90.2015 38.9036L90.1593 38.8035H86.8719L86.8981 38.9866C87.2657 41.5539 89.5217 43.1475 92.4906 43.1475H92.51C95.5123 43.1437 97.7198 41.4912 97.7198 39.0973C97.7275 37.8027 97.1696 36.9452 96.2582 36.4014ZM78.8734 30.7599C75.5414 30.7599 72.8153 33.5622 72.8139 36.9768C72.8139 40.3938 75.5433 43.1471 78.8734 43.1485H78.886C81.801 43.1485 83.9084 41.5092 84.5926 39.0983L84.6509 38.8914H81.1906L81.1464 38.9778C80.6885 39.8325 79.7912 40.2326 78.8521 40.2341C77.6036 40.2307 76.5999 39.5023 76.1862 38.2762H84.8082L84.8218 38.1281C84.8514 37.8168 84.8655 37.5153 84.8655 37.2215C84.866 35.183 84.1857 33.5622 83.0921 32.456C81.9976 31.3489 80.4962 30.7599 78.8734 30.7599ZM76.2406 35.5409C76.6907 34.3818 77.6532 33.6773 78.8521 33.6758C80.1214 33.6787 81.1221 34.3877 81.5174 35.5409H76.2406ZM56.1715 38.0703C56.1614 39.0604 55.5913 40.0277 54.2321 40.0335C52.8487 40.0277 52.2825 39.0604 52.2704 38.0703V34.1429H59.3307V31.0512H52.2704V28.1237H49.0005V37.9149C48.9986 39.4037 49.5099 40.7148 50.4247 41.6534C51.3381 42.5896 52.6525 43.1495 54.2326 43.147H54.238C55.8142 43.147 57.1213 42.5896 58.0294 41.6534C58.9389 40.7143 59.4444 39.4027 59.4444 37.9149V36.8156H56.172L56.1715 38.0703ZM105.781 38.0703C105.77 39.0604 105.2 40.0277 103.841 40.0335C102.458 40.0277 101.89 39.0604 101.879 38.0703V34.1429H108.94V31.0512H101.879V28.1237H98.6079V37.9149C98.6074 39.4037 99.1178 40.7148 100.033 41.6534C100.947 42.5896 102.261 43.1495 103.841 43.147H103.847C105.424 43.147 106.731 42.5896 107.639 41.6534C108.548 40.7143 109.054 39.4027 109.054 37.9149V36.8156H105.782V38.0703H105.781ZM178.223 38.3131C178.212 40.3603 176.794 41.7797 174.746 41.7903H174.736L174.729 41.7913C172.735 41.7743 171.313 40.3889 171.267 38.3898V32.338H179.191V30.9706H171.266V28.5456H169.899V38.3131C169.899 41.1023 171.957 43.1592 174.746 43.1587H174.749C177.507 43.1587 179.552 41.1406 179.59 38.3942V36.6461H178.224L178.223 38.3131ZM181.71 42.8911H183.08V28.0795H181.71V42.8911ZM196.721 36.8398C196.719 33.8555 194.32 30.6948 190.773 30.6846H190.75H190.741C187.456 30.7055 184.83 33.5258 184.823 36.9642C184.826 40.4215 187.508 43.1534 190.903 43.1587L190.934 43.1563C193.673 43.1684 195.646 41.717 196.459 39.1803L196.477 39.124L196.579 38.8103H195.154L195.083 38.9876C194.536 40.4254 193.458 41.7767 190.905 41.7913H190.863L190.853 41.7947C188.345 41.7544 186.351 39.8475 186.198 37.1963H196.722L196.721 36.8398ZM186.334 35.8313C186.804 33.6661 188.613 32.0739 190.773 32.0739H190.774C192.907 32.0729 194.74 33.6637 195.232 35.8313H186.334ZM217.727 36.7825C216.814 36.262 215.646 36.0192 214.455 35.841L214.42 36.0799L214.454 35.841H214.452C213.201 35.6677 212.299 35.471 211.744 35.1903C211.191 34.8965 210.988 34.5969 210.969 34.0448V34.0235V34.0186C210.971 33.4796 211.265 32.996 211.824 32.6226C212.381 32.2535 213.198 32.0185 214.174 32.0185C216.128 32.0316 217.262 32.8207 217.699 34.2187L217.705 34.2439L217.755 34.4197H219.162L219.084 34.0725C218.578 31.8884 216.748 30.6642 214.156 30.6793H214.146H214.129C211.202 30.6851 209.569 32.3162 209.566 34.0482C209.583 35.2991 210.308 36.0615 211.225 36.4791C212.101 36.8865 213.164 37.0419 214.109 37.18L214.246 37.2001C215.622 37.3963 216.563 37.6697 217.135 38.0315C217.704 38.3966 217.926 38.804 217.952 39.4202C217.955 39.4819 217.958 39.5338 217.958 39.5766C217.956 40.0388 217.789 40.4521 217.48 40.7832C216.892 41.3965 215.815 41.8234 214.508 41.8224C212.163 41.8073 210.716 40.9148 210.349 39.244L210.339 39.207L210.294 39.022H208.919L208.972 39.3503C209.368 41.8224 211.568 43.1587 214.483 43.1587H214.529C216.071 43.1587 217.414 42.7231 218.309 41.919L218.316 41.9268L218.461 41.7753L218.484 41.7539L218.651 41.582L218.641 41.5738C219.122 40.9814 219.359 40.2321 219.359 39.4833C219.358 39.4726 219.359 39.4598 219.359 39.4457V39.4449V39.4442C219.359 39.437 219.359 39.4295 219.359 39.4217C219.359 39.4117 219.359 39.4034 219.358 39.3978L219.358 39.3916C219.298 38.1334 218.641 37.2963 217.727 36.7825ZM206.503 36.6461V38.4403C206.422 40.4263 205.025 41.7782 203.027 41.7899H203.006L202.996 41.7913C201.02 41.7695 199.606 40.3957 199.551 38.4146V32.339L207.471 32.338V30.9721H199.547L199.545 28.5442H198.18V38.3131C198.179 41.1013 200.238 43.1592 203.025 43.1587H203.028C205.813 43.1587 207.87 41.1032 207.873 38.3194L207.87 36.6461H206.503ZM166.083 37.8295H166.08V38.2631C165.99 40.3239 164.539 41.7457 162.461 41.7937V41.7923H162.382C160.246 41.7835 158.714 40.269 158.704 38.113V30.9721H157.337V38.1111C157.335 41.0119 159.485 43.1592 162.383 43.1587H162.406L162.421 43.1558C163.932 43.1514 165.216 42.5726 166.081 41.5922V42.8911H167.45V30.9721H166.084L166.083 37.8295ZM149.421 30.5559C146.008 30.5559 143.225 33.2567 143.098 36.6359H143.094V37.1142H143.098C143.224 40.4972 146.005 43.2 149.421 43.2C152.91 43.2 155.742 40.37 155.744 36.8767C155.741 33.3864 152.909 30.5559 149.421 30.5559ZM149.419 41.8442C146.676 41.8384 144.456 39.6183 144.451 36.8772C144.457 34.1356 146.676 31.9185 149.421 31.9136C152.16 31.9185 154.379 34.1347 154.384 36.8782C154.379 39.6203 152.16 41.8384 149.419 41.8442ZM123.566 42.8805H126.835V28.1237H123.566V42.8805ZM118.125 37.9377C118.118 39.1565 117.287 40.0282 116.051 40.0335C114.252 40.0311 114.081 38.57 114.065 37.9377V31.0512H110.796V37.9377C110.795 39.478 111.277 40.7837 112.129 41.7029C112.981 42.6236 114.203 43.1495 115.648 43.1495C116.606 43.1495 117.446 42.8576 118.126 42.3764V43.3903C118.11 44.4139 117.633 45.4307 116.117 45.4419C115.151 45.4327 114.493 45.051 114.331 44.2969L114.304 44.1677H110.922L110.953 44.3566C111.368 46.8064 113.522 48.5137 116.116 48.5117H116.119C117.694 48.5117 119.02 47.982 119.948 47.0472C120.873 46.1101 121.395 44.7752 121.395 43.1898V31.0512H118.125V37.9377ZM134.631 30.7599C131.296 30.7609 128.571 33.5622 128.571 36.9777C128.571 40.3938 131.301 43.147 134.631 43.147H134.645C137.556 43.147 139.665 41.5092 140.348 39.0963L140.407 38.8914H136.945L136.899 38.9778C136.443 39.8325 135.545 40.2326 134.607 40.2341C133.36 40.2307 132.355 39.5013 131.941 38.2762H140.564L140.576 38.1281C140.606 37.8188 140.618 37.5163 140.618 37.2239C140.62 35.1864 139.941 33.5636 138.847 32.456C137.754 31.3489 136.252 30.7584 134.631 30.7599ZM131.997 35.5409C132.447 34.3818 133.409 33.6773 134.608 33.6758C135.876 33.6787 136.877 34.3877 137.273 35.5409H131.997ZM95.9815 24.239H97.2368V6.76881H95.9815V11.0089C94.5564 8.22701 91.7749 6.32694 88.5182 6.32694C83.7012 6.32694 79.8 10.466 79.8 15.5544C79.8 20.5748 83.7012 24.6455 88.5182 24.6455C91.7749 24.6455 94.5564 22.7799 95.9815 20.032V24.239ZM81.0557 15.5549C81.0557 11.1784 84.414 7.61664 88.5186 7.61664C92.6233 7.61664 95.9815 11.1784 95.982 15.5549C95.982 19.8625 92.6237 23.3907 88.5186 23.3907C84.414 23.3907 81.0557 19.8625 81.0557 15.5549ZM118.675 24.239H117.42V20.032C115.995 22.7799 113.213 24.6455 109.956 24.6455C105.139 24.6455 101.238 20.5748 101.238 15.5544C101.238 10.466 105.139 6.32693 109.956 6.32693C113.213 6.32693 115.995 8.227 117.42 11.0089V-1H118.675V24.239ZM109.957 7.61663C105.852 7.61663 102.494 11.1784 102.494 15.5549C102.494 19.8625 105.852 23.3907 109.957 23.3907C114.062 23.3907 117.42 19.8625 117.42 15.5549C117.42 11.1784 114.061 7.61663 109.957 7.61663ZM131.598 23.3902C127.358 23.3902 123.966 20.032 123.932 15.4864L140.113 15.486C140.181 11.0759 136.619 6.32694 131.395 6.32694C126.578 6.32694 122.677 10.466 122.677 15.5544C122.677 20.6423 126.612 24.6455 131.598 24.6455C135.704 24.6455 138.519 22.5759 139.74 18.8107H138.417C137.569 21.1172 135.703 23.3902 131.598 23.3902ZM131.395 7.61664C135.059 7.61664 138.146 10.466 138.756 14.2312H124.068C124.645 10.466 127.698 7.61664 131.395 7.61664ZM151.306 24.646C146.489 24.646 142.588 20.5754 142.588 15.555C142.588 10.4666 146.489 6.32746 151.306 6.32746C155.174 6.32746 158.193 8.63397 159.38 12.1622H158.023C156.903 9.3808 154.427 7.61717 151.306 7.61717C147.202 7.61717 143.843 11.1789 143.843 15.5554C143.843 19.863 147.202 23.3913 151.306 23.3913C154.529 23.3913 157.005 21.6276 158.057 18.8117H159.38C158.226 22.339 155.173 24.646 151.306 24.646ZM178.444 24.239H179.699V6.76881H178.444V11.0089C177.019 8.22701 174.237 6.32694 170.98 6.32694C166.163 6.32694 162.263 10.466 162.263 15.5544C162.263 20.5748 166.163 24.6455 170.98 24.6455C174.237 24.6455 177.018 22.7799 178.444 20.032V24.239ZM163.518 15.5549C163.518 11.1784 166.876 7.61664 170.98 7.61664C175.085 7.61664 178.444 11.1784 178.444 15.5549C178.444 19.8625 175.085 23.3907 170.98 23.3907C166.876 23.3907 163.518 19.8625 163.518 15.5549ZM199.916 24.2391H198.661V13.6889C198.661 9.85521 196.591 7.54821 192.758 7.54821C189.231 7.54821 186.482 10.1606 186.482 13.6889V24.2391H185.227V6.76886H186.482V9.71973C187.737 7.65019 190.01 6.32746 192.792 6.32746C197.27 6.32746 199.916 9.14335 199.916 13.6889V24.2391ZM212.059 24.646C214.501 24.646 216.571 23.8992 217.826 22.6104C218.674 21.7281 219.081 20.5074 219.047 19.2862C218.878 15.7584 215.52 14.8086 211.89 14.2657C208.022 13.7233 206.19 13.0785 206.157 11.0769C206.123 9.04235 208.362 7.51519 211.517 7.51519C214.638 7.51519 216.639 8.87239 217.352 11.2129H218.641C217.894 8.05759 215.35 6.32746 211.483 6.32746C207.107 6.32746 204.868 8.70195 204.868 11.0764C204.935 14.5014 208.591 15.0348 211.593 15.4728L211.687 15.4865C215.961 16.0973 217.69 17.1831 217.759 19.3197C217.827 20.2364 217.521 21.0843 216.911 21.7286C215.893 22.7804 214.129 23.4583 212.025 23.4583C208.328 23.4583 205.818 21.9661 205.207 19.1507H203.952C204.529 22.7124 207.649 24.646 212.059 24.646Z" fill="black"/>
</g>
<defs>
<clipPath id="clip0_6456_48544">
<rect width="228" height="50" fill="white"/>
</clipPath>
</defs>
</svg>